<svg xmlns="http://www.w3.org/2000/svg" viewBox="0 0 64 64" width="64" height="64">
  <rect width="64" height="64" rx="12" fill="#4f46e5"/>
  <g fill="#ffffff">
    <!-- top-left finder -->
    <rect x="10" y="10" width="16" height="16" rx="3"/>
    <rect x="14" y="14" width="8" height="8" rx="1.5" fill="#4f46e5"/>
    <!-- top-right finder -->
    <rect x="38" y="10" width="16" height="16" rx="3"/>
    <rect x="42" y="14" width="8" height="8" rx="1.5" fill="#4f46e5"/>
    <!-- bottom-left finder -->
    <rect x="10" y="38" width="16" height="16" rx="3"/>
    <rect x="14" y="42" width="8" height="8" rx="1.5" fill="#4f46e5"/>
    <!-- data dots -->
    <rect x="34" y="34" width="6" height="6" rx="1"/>
    <rect x="44" y="34" width="6" height="6" rx="1"/>
    <rect x="34" y="44" width="6" height="6" rx="1"/>
    <rect x="48" y="44" width="6" height="6" rx="1"/>
    <rect x="44" y="48" width="6" height="6" rx="1"/>
    <rect x="34" y="52" width="6" height="2" rx="1"/>
  </g>
</svg>
